<?xml version="1.0" standalone="no"?>
<!DOCTYPE svg PUBLIC "-//W3C//DTD SVG 20010904//EN"
 "http://www.w3.org/TR/2001/REC-SVG-20010904/DTD/svg10.dtd">
<svg version="1.0" xmlns="http://www.w3.org/2000/svg"
 width="512.000000pt" height="512.000000pt" viewBox="0 0 512.000000 512.000000"
 preserveAspectRatio="xMidYMid meet">

<g transform="translate(0.000000,512.000000) scale(0.100000,-0.100000)"
fill="#000000" stroke="none">
<path d="M1440 3920 l0 -880 209 0 c115 0 244 -5 287 -11 209 -29 423 -127
570 -262 l54 -49 54 49 c114 104 287 196 453 240 90 24 119 26 356 31 l257 4
0 880 0 880 -257 -4 c-237 -5 -266 -7 -356 -31 -166 -44 -339 -136 -454 -240
l-54 -50 -42 40 c-145 139 -366 242 -581 272 -43 6 -172 11 -287 11 l-209 0 0
-880z m688 528 c89 -32 169 -79 228 -134 53 -49 59 -90 19 -129 -36 -37 -74
-33 -131 16 -115 96 -198 119 -427 119 -165 0 -168 0 -192 25 -33 32 -33 78 1
111 l25 26 202 -4 c187 -4 207 -6 275 -30z m1367 7 c16 -15 25 -36 25 -55 0
-19 -9 -40 -25 -55 -24 -25 -27 -25 -192 -25 -229 0 -312 -23 -427 -119 -57
-49 -95 -53 -131 -16 -29 28 -32 70 -10 103 22 31 132 107 198 138 91 41 166
52 360 53 176 1 178 1 202 -24z m-1367 -487 c89 -32 169 -79 228 -134 53 -49
59 -90 19 -129 -36 -37 -74 -33 -131 16 -115 96 -198 119 -427 119 -165 0
-168 0 -192 25 -33 32 -33 78 1 111 l25 26 202 -4 c187 -4 207 -6 275 -30z
m1367 7 c16 -15 25 -36 25 -55 0 -19 -9 -40 -25 -55 -24 -25 -27 -25 -192 -25
-229 0 -312 -23 -427 -119 -57 -49 -95 -53 -131 -16 -29 28 -32 70 -10 103 22
31 132 107 198 138 91 41 166 52 360 53 176 1 178 1 202 -24z m-1367 -487 c89
-32 169 -79 228 -134 53 -49 59 -90 19 -129 -36 -37 -74 -33 -131 16 -115 96
-198 119 -427 119 -165 0 -168 0 -192 25 -33 32 -33 78 1 111 l25 26 202 -4
c187 -4 207 -6 275 -30z m1367 7 c16 -15 25 -36 25 -55 0 -19 -9 -40 -25 -55
-24 -25 -27 -25 -192 -25 -229 0 -312 -23 -427 -119 -57 -49 -95 -53 -131 -16
-29 28 -32 70 -10 103 22 31 132 107 198 138 91 41 166 52 360 53 176 1 178 1
202 -24z"/>
<path d="M1215 4626 c-41 -18 -83 -69 -90 -109 -3 -18 -5 -406 -3 -864 3 -822
3 -832 24 -859 11 -15 33 -37 48 -48 26 -20 44 -21 374 -27 319 -5 354 -8 432
-29 169 -45 310 -120 433 -228 96 -86 157 -84 268 10 136 113 249 172 419 218
78 21 113 24 432 29 330 6 348 7 374 27 15 11 37 33 48 48 21 27 21 34 21 886
0 852 0 859 -21 886 -28 39 -63 63 -101 70 l-33 7 0 -882 0 -881 -289 0 c-321
0 -402 -9 -544 -60 -120 -44 -229 -115 -346 -226 l-101 -96 -94 90 c-112 108
-217 179 -326 222 -157 60 -177 63 -532 67 l-328 5 0 879 c0 831 -1 879 -17
879 -10 -1 -32 -7 -48 -14z"/>
<path d="M1001 2384 c-169 -45 -301 -180 -346 -351 -64 -247 93 -509 348 -578
51 -13 49 -14 -103 -14 -169 -1 -234 -12 -322 -57 -77 -39 -162 -126 -202
-206 -47 -93 -58 -156 -54 -308 3 -140 10 -158 72 -204 27 -21 39 -21 615 -24
l588 -2 7 67 c14 145 80 277 195 390 l73 73 -32 50 c-40 62 -119 134 -182 166
-84 42 -150 54 -318 55 -154 0 -155 0 -101 15 253 68 410 331 346 577 -67 259
-333 419 -584 351z"/>
<path d="M3881 2384 c-169 -45 -301 -180 -346 -351 -64 -247 93 -509 348 -578
51 -13 49 -14 -103 -14 -169 -1 -234 -12 -321 -57 -64 -32 -138 -100 -179
-165 l-32 -48 74 -73 c114 -115 180 -246 194 -391 l7 -67 588 2 c576 3 588 3
615 24 62 46 69 64 72 204 4 152 -7 215 -54 308 -40 80 -125 167 -202 206 -88
45 -153 56 -322 57 -154 0 -155 0 -101 15 253 68 410 331 346 577 -67 259
-333 419 -584 351z"/>
<path d="M2441 2064 c-169 -45 -301 -180 -346 -351 -64 -247 93 -509 348 -578
51 -13 49 -14 -103 -14 -169 -1 -234 -12 -322 -57 -77 -39 -162 -126 -202
-206 -47 -93 -58 -156 -54 -308 3 -140 10 -158 72 -204 27 -21 36 -21 726 -21
690 0 699 0 726 21 62 46 69 64 72 204 4 152 -7 215 -54 308 -40 80 -125 167
-202 206 -88 45 -153 56 -322 57 -154 0 -155 0 -101 15 253 68 410 331 346
577 -67 259 -333 419 -584 351z"/>
</g>
</svg>
